<svg viewBox="0 0 1920 1080" xmlns="http://www.w3.org/2000/svg" xmlns:xlink="http://www.w3.org/1999/xlink">
<rect width="1920" height="1080" fill="#08070a"/>
<!-- Photo: auto parts / shelves -->
<clipPath id="photoClip2">
  <rect x="1200" y="0" width="720" height="1080"/>
</clipPath>
<image href="https://images.unsplash.com/photo-1486262715619-67b85e0b08d3?w=900&q=85"
       x="1200" y="0" width="720" height="1080"
       preserveAspectRatio="xMidYMid slice"
       clip-path="url(#photoClip2)"/>
<defs>
  <linearGradient id="fadeRight2" x1="0" y1="0" x2="1" y2="0">
    <stop offset="0%" stop-color="#08070a" stop-opacity="1"/>
    <stop offset="55%" stop-color="#08070a" stop-opacity="0.95"/>
    <stop offset="75%" stop-color="#08070a" stop-opacity="0.35"/>
    <stop offset="100%" stop-color="#08070a" stop-opacity="0.05"/>
  </linearGradient>
</defs>
<rect width="1920" height="1080" fill="url(#fadeRight2)"/>
<path d="M1210 20 L1230 20 L1230 40" fill="none" stroke="rgba(217,31,38,0.6)" stroke-width="2"/>
<path d="M1900 20 L1880 20 L1880 40" fill="none" stroke="rgba(217,31,38,0.6)" stroke-width="2"/>
<path d="M1210 1060 L1230 1060 L1230 1040" fill="none" stroke="rgba(217,31,38,0.6)" stroke-width="2"/>
<path d="M1900 1060 L1880 1060 L1880 1040" fill="none" stroke="rgba(217,31,38,0.6)" stroke-width="2"/>
<rect x="1200" y="0" width="720" height="3" fill="rgba(217,31,38,0.5)"/>
<rect x="160" y="300" width="16" height="240" fill="#d91f26"/>
<text x="200" y="420" font-family="Arial Black, Arial" font-size="160" font-weight="900" fill="#ffffff" letter-spacing="-6">QUALITY</text>
<text x="200" y="580" font-family="Arial Black, Arial" font-size="160" font-weight="900" fill="#d91f26" letter-spacing="-6">PARTS</text>
<text x="200" y="280" font-family="Arial" font-size="32" font-weight="700" fill="rgba(255,255,255,0.45)" letter-spacing="12">REPUESTOS · PARTS · AUTOPARTES</text>
<text x="200" y="660" font-family="Arial" font-size="42" fill="rgba(255,255,255,0.5)">OEM and aftermarket. Same-day availability.</text>
<rect x="200" y="720" width="200" height="56" rx="28" fill="rgba(217,31,38,0.12)" stroke="rgba(217,31,38,0.3)" stroke-width="2"/>
<text x="300" y="755" font-family="Arial" font-size="24" fill="#d91f26" text-anchor="middle" font-weight="700">DOMESTIC</text>
<rect x="420" y="720" width="160" height="56" rx="28" fill="rgba(217,31,38,0.12)" stroke="rgba(217,31,38,0.3)" stroke-width="2"/>
<text x="500" y="755" font-family="Arial" font-size="24" fill="#d91f26" text-anchor="middle" font-weight="700">ASIAN</text>
<rect x="600" y="720" width="210" height="56" rx="28" fill="rgba(217,31,38,0.12)" stroke="rgba(217,31,38,0.3)" stroke-width="2"/>
<text x="705" y="755" font-family="Arial" font-size="24" fill="#d91f26" text-anchor="middle" font-weight="700">EUROPEAN</text>
</svg>
